<svg xmlns="http://www.w3.org/2000/svg" width="1146" height="328" viewBox="0 0 1146 328" role="img" aria-label="PET Profile Report Make.com workflow">
  <defs>
    <linearGradient id="bg" x1="0" y1="0" x2="1" y2="1">
      <stop offset="0%" stop-color="#0a0f1c"/>
      <stop offset="100%" stop-color="#0b1424"/>
    </linearGradient>
    <pattern id="dots" width="28" height="28" patternUnits="userSpaceOnUse">
      <circle cx="2" cy="2" r="1.4" fill="#3b82f6" fill-opacity="0.08"/>
    </pattern>
  </defs>
  <rect width="1146" height="328" fill="url(#bg)"/>
  <rect width="1146" height="328" fill="url(#dots)"/>
  <text x="48" y="42" font-family="Inter, Segoe UI, Arial, sans-serif" font-size="20" font-weight="800" fill="#f1f5f9">PET Profile Report</text>
  <g font-family="Inter, Segoe UI, Arial, sans-serif">
    <path d="M224,124 C241,124 241,124 258,124" fill="none" stroke="#3b82f6" stroke-opacity="0.45" stroke-width="2"/>
<path d="M854,124 C871,124 871,124 888,124" fill="none" stroke="#3b82f6" stroke-opacity="0.45" stroke-width="2"/>
<path d="M434,124 C451,124 451,172 468,172" fill="none" stroke="#3b82f6" stroke-opacity="0.45" stroke-width="2"/>
<path d="M644,172 C661,172 661,124 678,124" fill="none" stroke="#3b82f6" stroke-opacity="0.45" stroke-width="2"/>
<path d="M644,172 C661,172 661,220 678,220" fill="none" stroke="#3b82f6" stroke-opacity="0.45" stroke-width="2"/>
    <g transform="translate(48,88)">
        <rect width="176" height="72" rx="12" fill="#0f1830" stroke="#7c3aed" stroke-opacity="0.85" stroke-width="2"/>
        <rect width="6" height="72" rx="3" fill="#7c3aed"/>
        <text x="20" y="30" font-size="16" font-weight="700" fill="#e2e8f0">Webhook</text>
        <text x="20" y="52" font-size="13" font-weight="500" fill="#94a3b8">Webhook</text>
      </g>
<g transform="translate(258,88)">
        <rect width="176" height="72" rx="12" fill="#0f1830" stroke="#2563eb" stroke-opacity="0.85" stroke-width="2"/>
        <rect width="6" height="72" rx="3" fill="#2563eb"/>
        <text x="20" y="30" font-size="16" font-weight="700" fill="#e2e8f0">SuiteDash</text>
        <text x="20" y="52" font-size="13" font-weight="500" fill="#94a3b8">Get Contact</text>
      </g>
<g transform="translate(678,88)">
        <rect width="176" height="72" rx="12" fill="#0f1830" stroke="#64748b" stroke-opacity="0.85" stroke-width="2"/>
        <rect width="6" height="72" rx="3" fill="#64748b"/>
        <text x="20" y="30" font-size="16" font-weight="700" fill="#e2e8f0">Regex</text>
        <text x="20" y="52" font-size="13" font-weight="500" fill="#94a3b8">Parse</text>
      </g>
<g transform="translate(888,88)">
        <rect width="176" height="72" rx="12" fill="#0f1830" stroke="#f59e0b" stroke-opacity="0.85" stroke-width="2"/>
        <rect width="6" height="72" rx="3" fill="#f59e0b"/>
        <text x="20" y="30" font-size="16" font-weight="700" fill="#e2e8f0">Airtable</text>
        <text x="20" y="52" font-size="13" font-weight="500" fill="#94a3b8">Create Record</text>
      </g>
<g transform="translate(678,184)">
        <rect width="176" height="72" rx="12" fill="#0f1830" stroke="#f59e0b" stroke-opacity="0.85" stroke-width="2"/>
        <rect width="6" height="72" rx="3" fill="#f59e0b"/>
        <text x="20" y="30" font-size="16" font-weight="700" fill="#e2e8f0">Airtable</text>
        <text x="20" y="52" font-size="13" font-weight="500" fill="#94a3b8">Create Record</text>
      </g>
<g transform="translate(468,136)">
        <rect width="176" height="72" rx="12" fill="#0f1830" stroke="#7c3aed" stroke-opacity="0.85" stroke-width="2"/>
        <rect width="6" height="72" rx="3" fill="#7c3aed"/>
        <text x="20" y="30" font-size="16" font-weight="700" fill="#e2e8f0">Router</text>
        <text x="20" y="52" font-size="13" font-weight="500" fill="#94a3b8">2 routes</text>
      </g>
  </g>
</svg>
