<svg xmlns="http://www.w3.org/2000/svg" width="3456" height="1288" viewBox="0 0 3456 1288" role="img" aria-label="PPD_Subscription Make.com workflow">
  <defs>
    <linearGradient id="bg" x1="0" y1="0" x2="1" y2="1">
      <stop offset="0%" stop-color="#0a0f1c"/>
      <stop offset="100%" stop-color="#0b1424"/>
    </linearGradient>
    <pattern id="dots" width="28" height="28" patternUnits="userSpaceOnUse">
      <circle cx="2" cy="2" r="1.4" fill="#3b82f6" fill-opacity="0.08"/>
    </pattern>
  </defs>
  <rect width="3456" height="1288" fill="url(#bg)"/>
  <rect width="3456" height="1288" fill="url(#dots)"/>
  <text x="48" y="42" font-family="Inter, Segoe UI, Arial, sans-serif" font-size="20" font-weight="800" fill="#f1f5f9">PPD_Subscription</text>
  <g font-family="Inter, Segoe UI, Arial, sans-serif">
    <path d="M644,124 C661,124 661,124 678,124" fill="none" stroke="#3b82f6" stroke-opacity="0.45" stroke-width="2"/>
<path d="M854,124 C871,124 871,124 888,124" fill="none" stroke="#3b82f6" stroke-opacity="0.45" stroke-width="2"/>
<path d="M1484,124 C1501,124 1501,124 1518,124" fill="none" stroke="#3b82f6" stroke-opacity="0.45" stroke-width="2"/>
<path d="M2114,124 C2131,124 2131,172 2148,172" fill="none" stroke="#3b82f6" stroke-opacity="0.45" stroke-width="2"/>
<path d="M2324,172 C2341,172 2341,124 2358,124" fill="none" stroke="#3b82f6" stroke-opacity="0.45" stroke-width="2"/>
<path d="M2324,172 C2341,172 2341,220 2358,220" fill="none" stroke="#3b82f6" stroke-opacity="0.45" stroke-width="2"/>
<path d="M2114,316 C2131,316 2131,364 2148,364" fill="none" stroke="#3b82f6" stroke-opacity="0.45" stroke-width="2"/>
<path d="M2324,364 C2341,364 2341,316 2358,316" fill="none" stroke="#3b82f6" stroke-opacity="0.45" stroke-width="2"/>
<path d="M2324,364 C2341,364 2341,412 2358,412" fill="none" stroke="#3b82f6" stroke-opacity="0.45" stroke-width="2"/>
<path d="M1694,124 C1711,124 1711,268 1728,268" fill="none" stroke="#3b82f6" stroke-opacity="0.45" stroke-width="2"/>
<path d="M1904,268 C1921,268 1921,124 1938,124" fill="none" stroke="#3b82f6" stroke-opacity="0.45" stroke-width="2"/>
<path d="M1904,268 C1921,268 1921,316 1938,316" fill="none" stroke="#3b82f6" stroke-opacity="0.45" stroke-width="2"/>
<path d="M1484,508 C1501,508 1501,508 1518,508" fill="none" stroke="#3b82f6" stroke-opacity="0.45" stroke-width="2"/>
<path d="M2114,508 C2131,508 2131,556 2148,556" fill="none" stroke="#3b82f6" stroke-opacity="0.45" stroke-width="2"/>
<path d="M2324,556 C2341,556 2341,508 2358,508" fill="none" stroke="#3b82f6" stroke-opacity="0.45" stroke-width="2"/>
<path d="M2324,556 C2341,556 2341,604 2358,604" fill="none" stroke="#3b82f6" stroke-opacity="0.45" stroke-width="2"/>
<path d="M2114,700 C2131,700 2131,748 2148,748" fill="none" stroke="#3b82f6" stroke-opacity="0.45" stroke-width="2"/>
<path d="M2324,748 C2341,748 2341,700 2358,700" fill="none" stroke="#3b82f6" stroke-opacity="0.45" stroke-width="2"/>
<path d="M2324,748 C2341,748 2341,796 2358,796" fill="none" stroke="#3b82f6" stroke-opacity="0.45" stroke-width="2"/>
<path d="M1694,508 C1711,508 1711,652 1728,652" fill="none" stroke="#3b82f6" stroke-opacity="0.45" stroke-width="2"/>
<path d="M1904,652 C1921,652 1921,508 1938,508" fill="none" stroke="#3b82f6" stroke-opacity="0.45" stroke-width="2"/>
<path d="M1904,652 C1921,652 1921,700 1938,700" fill="none" stroke="#3b82f6" stroke-opacity="0.45" stroke-width="2"/>
<path d="M1904,892 C1921,892 1921,892 1938,892" fill="none" stroke="#3b82f6" stroke-opacity="0.45" stroke-width="2"/>
<path d="M2114,892 C2131,892 2131,892 2148,892" fill="none" stroke="#3b82f6" stroke-opacity="0.45" stroke-width="2"/>
<path d="M2324,892 C2341,892 2341,892 2358,892" fill="none" stroke="#3b82f6" stroke-opacity="0.45" stroke-width="2"/>
<path d="M2534,892 C2551,892 2551,892 2568,892" fill="none" stroke="#3b82f6" stroke-opacity="0.45" stroke-width="2"/>
<path d="M1904,988 C1921,988 1921,988 1938,988" fill="none" stroke="#3b82f6" stroke-opacity="0.45" stroke-width="2"/>
<path d="M2114,988 C2131,988 2131,988 2148,988" fill="none" stroke="#3b82f6" stroke-opacity="0.45" stroke-width="2"/>
<path d="M2324,988 C2341,988 2341,988 2358,988" fill="none" stroke="#3b82f6" stroke-opacity="0.45" stroke-width="2"/>
<path d="M2534,988 C2551,988 2551,988 2568,988" fill="none" stroke="#3b82f6" stroke-opacity="0.45" stroke-width="2"/>
<path d="M1484,892 C1501,892 1501,940 1518,940" fill="none" stroke="#3b82f6" stroke-opacity="0.45" stroke-width="2"/>
<path d="M1694,940 C1711,940 1711,892 1728,892" fill="none" stroke="#3b82f6" stroke-opacity="0.45" stroke-width="2"/>
<path d="M1694,940 C1711,940 1711,988 1728,988" fill="none" stroke="#3b82f6" stroke-opacity="0.45" stroke-width="2"/>
<path d="M1064,124 C1081,124 1081,556 1098,556" fill="none" stroke="#3b82f6" stroke-opacity="0.45" stroke-width="2"/>
<path d="M1274,556 C1291,556 1291,124 1308,124" fill="none" stroke="#3b82f6" stroke-opacity="0.45" stroke-width="2"/>
<path d="M1274,556 C1291,556 1291,508 1308,508" fill="none" stroke="#3b82f6" stroke-opacity="0.45" stroke-width="2"/>
<path d="M1274,556 C1291,556 1291,892 1308,892" fill="none" stroke="#3b82f6" stroke-opacity="0.45" stroke-width="2"/>
<path d="M644,1084 C661,1084 661,1084 678,1084" fill="none" stroke="#3b82f6" stroke-opacity="0.45" stroke-width="2"/>
<path d="M854,1084 C871,1084 871,1084 888,1084" fill="none" stroke="#3b82f6" stroke-opacity="0.45" stroke-width="2"/>
<path d="M1484,1084 C1501,1084 1501,1084 1518,1084" fill="none" stroke="#3b82f6" stroke-opacity="0.45" stroke-width="2"/>
<path d="M1694,1084 C1711,1084 1711,1084 1728,1084" fill="none" stroke="#3b82f6" stroke-opacity="0.45" stroke-width="2"/>
<path d="M1904,1084 C1921,1084 1921,1084 1938,1084" fill="none" stroke="#3b82f6" stroke-opacity="0.45" stroke-width="2"/>
<path d="M2534,1084 C2551,1084 2551,1084 2568,1084" fill="none" stroke="#3b82f6" stroke-opacity="0.45" stroke-width="2"/>
<path d="M2744,1084 C2761,1084 2761,1084 2778,1084" fill="none" stroke="#3b82f6" stroke-opacity="0.45" stroke-width="2"/>
<path d="M2954,1084 C2971,1084 2971,1084 2988,1084" fill="none" stroke="#3b82f6" stroke-opacity="0.45" stroke-width="2"/>
<path d="M3164,1084 C3181,1084 3181,1084 3198,1084" fill="none" stroke="#3b82f6" stroke-opacity="0.45" stroke-width="2"/>
<path d="M2534,1180 C2551,1180 2551,1180 2568,1180" fill="none" stroke="#3b82f6" stroke-opacity="0.45" stroke-width="2"/>
<path d="M2744,1180 C2761,1180 2761,1180 2778,1180" fill="none" stroke="#3b82f6" stroke-opacity="0.45" stroke-width="2"/>
<path d="M2954,1180 C2971,1180 2971,1180 2988,1180" fill="none" stroke="#3b82f6" stroke-opacity="0.45" stroke-width="2"/>
<path d="M3164,1180 C3181,1180 3181,1180 3198,1180" fill="none" stroke="#3b82f6" stroke-opacity="0.45" stroke-width="2"/>
<path d="M2114,1084 C2131,1084 2131,1132 2148,1132" fill="none" stroke="#3b82f6" stroke-opacity="0.45" stroke-width="2"/>
<path d="M2324,1132 C2341,1132 2341,1084 2358,1084" fill="none" stroke="#3b82f6" stroke-opacity="0.45" stroke-width="2"/>
<path d="M2324,1132 C2341,1132 2341,1180 2358,1180" fill="none" stroke="#3b82f6" stroke-opacity="0.45" stroke-width="2"/>
<path d="M1064,1084 C1081,1084 1081,1132 1098,1132" fill="none" stroke="#3b82f6" stroke-opacity="0.45" stroke-width="2"/>
<path d="M1274,1132 C1291,1132 1291,1084 1308,1084" fill="none" stroke="#3b82f6" stroke-opacity="0.45" stroke-width="2"/>
<path d="M224,124 C241,124 241,652 258,652" fill="none" stroke="#3b82f6" stroke-opacity="0.45" stroke-width="2"/>
<path d="M434,652 C451,652 451,124 468,124" fill="none" stroke="#3b82f6" stroke-opacity="0.45" stroke-width="2"/>
<path d="M434,652 C451,652 451,1084 468,1084" fill="none" stroke="#3b82f6" stroke-opacity="0.45" stroke-width="2"/>
    <g transform="translate(48,88)">
        <rect width="176" height="72" rx="12" fill="#0f1830" stroke="#7c3aed" stroke-opacity="0.85" stroke-width="2"/>
        <rect width="6" height="72" rx="3" fill="#7c3aed"/>
        <text x="20" y="30" font-size="16" font-weight="700" fill="#e2e8f0">Webhook</text>
        <text x="20" y="52" font-size="13" font-weight="500" fill="#94a3b8">Webhook</text>
      </g>
<g transform="translate(468,88)">
        <rect width="176" height="72" rx="12" fill="#0f1830" stroke="#0ea5e9" stroke-opacity="0.85" stroke-width="2"/>
        <rect width="6" height="72" rx="3" fill="#0ea5e9"/>
        <text x="20" y="30" font-size="16" font-weight="700" fill="#e2e8f0">HTTP</text>
        <text x="20" y="52" font-size="13" font-weight="500" fill="#94a3b8">HTTP Request</text>
      </g>
<g transform="translate(678,88)">
        <rect width="176" height="72" rx="12" fill="#0f1830" stroke="#0ea5e9" stroke-opacity="0.85" stroke-width="2"/>
        <rect width="6" height="72" rx="3" fill="#0ea5e9"/>
        <text x="20" y="30" font-size="16" font-weight="700" fill="#e2e8f0">HTTP</text>
        <text x="20" y="52" font-size="13" font-weight="500" fill="#94a3b8">HTTP Request</text>
      </g>
<g transform="translate(888,88)">
        <rect width="176" height="72" rx="12" fill="#0f1830" stroke="#f59e0b" stroke-opacity="0.85" stroke-width="2"/>
        <rect width="6" height="72" rx="3" fill="#f59e0b"/>
        <text x="20" y="30" font-size="16" font-weight="700" fill="#e2e8f0">Airtable</text>
        <text x="20" y="52" font-size="13" font-weight="500" fill="#94a3b8">Search Records</text>
      </g>
<g transform="translate(1308,88)">
        <rect width="176" height="72" rx="12" fill="#0f1830" stroke="#f59e0b" stroke-opacity="0.85" stroke-width="2"/>
        <rect width="6" height="72" rx="3" fill="#f59e0b"/>
        <text x="20" y="30" font-size="16" font-weight="700" fill="#e2e8f0">Airtable</text>
        <text x="20" y="52" font-size="13" font-weight="500" fill="#94a3b8">Update Records</text>
      </g>
<g transform="translate(1518,88)">
        <rect width="176" height="72" rx="12" fill="#0f1830" stroke="#f59e0b" stroke-opacity="0.85" stroke-width="2"/>
        <rect width="6" height="72" rx="3" fill="#f59e0b"/>
        <text x="20" y="30" font-size="16" font-weight="700" fill="#e2e8f0">Airtable</text>
        <text x="20" y="52" font-size="13" font-weight="500" fill="#94a3b8">Search Records</text>
      </g>
<g transform="translate(1938,88)">
        <rect width="176" height="72" rx="12" fill="#0f1830" stroke="#f59e0b" stroke-opacity="0.85" stroke-width="2"/>
        <rect width="6" height="72" rx="3" fill="#f59e0b"/>
        <text x="20" y="30" font-size="16" font-weight="700" fill="#e2e8f0">Airtable</text>
        <text x="20" y="52" font-size="13" font-weight="500" fill="#94a3b8">Update Records</text>
      </g>
<g transform="translate(2358,88)">
        <rect width="176" height="72" rx="12" fill="#0f1830" stroke="#f59e0b" stroke-opacity="0.85" stroke-width="2"/>
        <rect width="6" height="72" rx="3" fill="#f59e0b"/>
        <text x="20" y="30" font-size="16" font-weight="700" fill="#e2e8f0">Airtable</text>
        <text x="20" y="52" font-size="13" font-weight="500" fill="#94a3b8">Update Records</text>
      </g>
<g transform="translate(2358,184)">
        <rect width="176" height="72" rx="12" fill="#0f1830" stroke="#f59e0b" stroke-opacity="0.85" stroke-width="2"/>
        <rect width="6" height="72" rx="3" fill="#f59e0b"/>
        <text x="20" y="30" font-size="16" font-weight="700" fill="#e2e8f0">Airtable</text>
        <text x="20" y="52" font-size="13" font-weight="500" fill="#94a3b8">Upsert Record</text>
      </g>
<g transform="translate(2148,136)">
        <rect width="176" height="72" rx="12" fill="#0f1830" stroke="#7c3aed" stroke-opacity="0.85" stroke-width="2"/>
        <rect width="6" height="72" rx="3" fill="#7c3aed"/>
        <text x="20" y="30" font-size="16" font-weight="700" fill="#e2e8f0">Router</text>
        <text x="20" y="52" font-size="13" font-weight="500" fill="#94a3b8">2 routes</text>
      </g>
<g transform="translate(1938,280)">
        <rect width="176" height="72" rx="12" fill="#0f1830" stroke="#f59e0b" stroke-opacity="0.85" stroke-width="2"/>
        <rect width="6" height="72" rx="3" fill="#f59e0b"/>
        <text x="20" y="30" font-size="16" font-weight="700" fill="#e2e8f0">Airtable</text>
        <text x="20" y="52" font-size="13" font-weight="500" fill="#94a3b8">Create Record</text>
      </g>
<g transform="translate(2358,280)">
        <rect width="176" height="72" rx="12" fill="#0f1830" stroke="#f59e0b" stroke-opacity="0.85" stroke-width="2"/>
        <rect width="6" height="72" rx="3" fill="#f59e0b"/>
        <text x="20" y="30" font-size="16" font-weight="700" fill="#e2e8f0">Airtable</text>
        <text x="20" y="52" font-size="13" font-weight="500" fill="#94a3b8">Update Records</text>
      </g>
<g transform="translate(2358,376)">
        <rect width="176" height="72" rx="12" fill="#0f1830" stroke="#f59e0b" stroke-opacity="0.85" stroke-width="2"/>
        <rect width="6" height="72" rx="3" fill="#f59e0b"/>
        <text x="20" y="30" font-size="16" font-weight="700" fill="#e2e8f0">Airtable</text>
        <text x="20" y="52" font-size="13" font-weight="500" fill="#94a3b8">Upsert Record</text>
      </g>
<g transform="translate(2148,328)">
        <rect width="176" height="72" rx="12" fill="#0f1830" stroke="#7c3aed" stroke-opacity="0.85" stroke-width="2"/>
        <rect width="6" height="72" rx="3" fill="#7c3aed"/>
        <text x="20" y="30" font-size="16" font-weight="700" fill="#e2e8f0">Router</text>
        <text x="20" y="52" font-size="13" font-weight="500" fill="#94a3b8">2 routes</text>
      </g>
<g transform="translate(1728,232)">
        <rect width="176" height="72" rx="12" fill="#0f1830" stroke="#7c3aed" stroke-opacity="0.85" stroke-width="2"/>
        <rect width="6" height="72" rx="3" fill="#7c3aed"/>
        <text x="20" y="30" font-size="16" font-weight="700" fill="#e2e8f0">Router</text>
        <text x="20" y="52" font-size="13" font-weight="500" fill="#94a3b8">2 routes</text>
      </g>
<g transform="translate(1308,472)">
        <rect width="176" height="72" rx="12" fill="#0f1830" stroke="#f59e0b" stroke-opacity="0.85" stroke-width="2"/>
        <rect width="6" height="72" rx="3" fill="#f59e0b"/>
        <text x="20" y="30" font-size="16" font-weight="700" fill="#e2e8f0">Airtable</text>
        <text x="20" y="52" font-size="13" font-weight="500" fill="#94a3b8">Create Record</text>
      </g>
<g transform="translate(1518,472)">
        <rect width="176" height="72" rx="12" fill="#0f1830" stroke="#f59e0b" stroke-opacity="0.85" stroke-width="2"/>
        <rect width="6" height="72" rx="3" fill="#f59e0b"/>
        <text x="20" y="30" font-size="16" font-weight="700" fill="#e2e8f0">Airtable</text>
        <text x="20" y="52" font-size="13" font-weight="500" fill="#94a3b8">Search Records</text>
      </g>
<g transform="translate(1938,472)">
        <rect width="176" height="72" rx="12" fill="#0f1830" stroke="#f59e0b" stroke-opacity="0.85" stroke-width="2"/>
        <rect width="6" height="72" rx="3" fill="#f59e0b"/>
        <text x="20" y="30" font-size="16" font-weight="700" fill="#e2e8f0">Airtable</text>
        <text x="20" y="52" font-size="13" font-weight="500" fill="#94a3b8">Update Records</text>
      </g>
<g transform="translate(2358,472)">
        <rect width="176" height="72" rx="12" fill="#0f1830" stroke="#f59e0b" stroke-opacity="0.85" stroke-width="2"/>
        <rect width="6" height="72" rx="3" fill="#f59e0b"/>
        <text x="20" y="30" font-size="16" font-weight="700" fill="#e2e8f0">Airtable</text>
        <text x="20" y="52" font-size="13" font-weight="500" fill="#94a3b8">Update Records</text>
      </g>
<g transform="translate(2358,568)">
        <rect width="176" height="72" rx="12" fill="#0f1830" stroke="#f59e0b" stroke-opacity="0.85" stroke-width="2"/>
        <rect width="6" height="72" rx="3" fill="#f59e0b"/>
        <text x="20" y="30" font-size="16" font-weight="700" fill="#e2e8f0">Airtable</text>
        <text x="20" y="52" font-size="13" font-weight="500" fill="#94a3b8">Upsert Record</text>
      </g>
<g transform="translate(2148,520)">
        <rect width="176" height="72" rx="12" fill="#0f1830" stroke="#7c3aed" stroke-opacity="0.85" stroke-width="2"/>
        <rect width="6" height="72" rx="3" fill="#7c3aed"/>
        <text x="20" y="30" font-size="16" font-weight="700" fill="#e2e8f0">Router</text>
        <text x="20" y="52" font-size="13" font-weight="500" fill="#94a3b8">2 routes</text>
      </g>
<g transform="translate(1938,664)">
        <rect width="176" height="72" rx="12" fill="#0f1830" stroke="#f59e0b" stroke-opacity="0.85" stroke-width="2"/>
        <rect width="6" height="72" rx="3" fill="#f59e0b"/>
        <text x="20" y="30" font-size="16" font-weight="700" fill="#e2e8f0">Airtable</text>
        <text x="20" y="52" font-size="13" font-weight="500" fill="#94a3b8">Create Record</text>
      </g>
<g transform="translate(2358,664)">
        <rect width="176" height="72" rx="12" fill="#0f1830" stroke="#f59e0b" stroke-opacity="0.85" stroke-width="2"/>
        <rect width="6" height="72" rx="3" fill="#f59e0b"/>
        <text x="20" y="30" font-size="16" font-weight="700" fill="#e2e8f0">Airtable</text>
        <text x="20" y="52" font-size="13" font-weight="500" fill="#94a3b8">Update Records</text>
      </g>
<g transform="translate(2358,760)">
        <rect width="176" height="72" rx="12" fill="#0f1830" stroke="#f59e0b" stroke-opacity="0.85" stroke-width="2"/>
        <rect width="6" height="72" rx="3" fill="#f59e0b"/>
        <text x="20" y="30" font-size="16" font-weight="700" fill="#e2e8f0">Airtable</text>
        <text x="20" y="52" font-size="13" font-weight="500" fill="#94a3b8">Upsert Record</text>
      </g>
<g transform="translate(2148,712)">
        <rect width="176" height="72" rx="12" fill="#0f1830" stroke="#7c3aed" stroke-opacity="0.85" stroke-width="2"/>
        <rect width="6" height="72" rx="3" fill="#7c3aed"/>
        <text x="20" y="30" font-size="16" font-weight="700" fill="#e2e8f0">Router</text>
        <text x="20" y="52" font-size="13" font-weight="500" fill="#94a3b8">2 routes</text>
      </g>
<g transform="translate(1728,616)">
        <rect width="176" height="72" rx="12" fill="#0f1830" stroke="#7c3aed" stroke-opacity="0.85" stroke-width="2"/>
        <rect width="6" height="72" rx="3" fill="#7c3aed"/>
        <text x="20" y="30" font-size="16" font-weight="700" fill="#e2e8f0">Router</text>
        <text x="20" y="52" font-size="13" font-weight="500" fill="#94a3b8">2 routes</text>
      </g>
<g transform="translate(1308,856)">
        <rect width="176" height="72" rx="12" fill="#0f1830" stroke="#16a34a" stroke-opacity="0.85" stroke-width="2"/>
        <rect width="6" height="72" rx="3" fill="#16a34a"/>
        <text x="20" y="30" font-size="16" font-weight="700" fill="#e2e8f0">AWeber</text>
        <text x="20" y="52" font-size="13" font-weight="500" fill="#94a3b8">Find Subscribers</text>
      </g>
<g transform="translate(1728,856)">
        <rect width="176" height="72" rx="12" fill="#0f1830" stroke="#16a34a" stroke-opacity="0.85" stroke-width="2"/>
        <rect width="6" height="72" rx="3" fill="#16a34a"/>
        <text x="20" y="30" font-size="16" font-weight="700" fill="#e2e8f0">AWeber</text>
        <text x="20" y="52" font-size="13" font-weight="500" fill="#94a3b8">Create Subscriber</text>
      </g>
<g transform="translate(1938,856)">
        <rect width="176" height="72" rx="12" fill="#0f1830" stroke="#2563eb" stroke-opacity="0.85" stroke-width="2"/>
        <rect width="6" height="72" rx="3" fill="#2563eb"/>
        <text x="20" y="30" font-size="16" font-weight="700" fill="#e2e8f0">SuiteDash</text>
        <text x="20" y="52" font-size="13" font-weight="500" fill="#94a3b8">API Call</text>
      </g>
<g transform="translate(2148,856)">
        <rect width="176" height="72" rx="12" fill="#0f1830" stroke="#64748b" stroke-opacity="0.85" stroke-width="2"/>
        <rect width="6" height="72" rx="3" fill="#64748b"/>
        <text x="20" y="30" font-size="16" font-weight="700" fill="#e2e8f0">Iterator</text>
        <text x="20" y="52" font-size="13" font-weight="500" fill="#94a3b8">Loop</text>
      </g>
<g transform="translate(2358,856)">
        <rect width="176" height="72" rx="12" fill="#0f1830" stroke="#2563eb" stroke-opacity="0.85" stroke-width="2"/>
        <rect width="6" height="72" rx="3" fill="#2563eb"/>
        <text x="20" y="30" font-size="16" font-weight="700" fill="#e2e8f0">SuiteDash</text>
        <text x="20" y="52" font-size="13" font-weight="500" fill="#94a3b8">API Call</text>
      </g>
<g transform="translate(2568,856)">
        <rect width="176" height="72" rx="12" fill="#0f1830" stroke="#16a34a" stroke-opacity="0.85" stroke-width="2"/>
        <rect width="6" height="72" rx="3" fill="#16a34a"/>
        <text x="20" y="30" font-size="16" font-weight="700" fill="#e2e8f0">AWeber</text>
        <text x="20" y="52" font-size="13" font-weight="500" fill="#94a3b8">Update Subscriber</text>
      </g>
<g transform="translate(1728,952)">
        <rect width="176" height="72" rx="12" fill="#0f1830" stroke="#16a34a" stroke-opacity="0.85" stroke-width="2"/>
        <rect width="6" height="72" rx="3" fill="#16a34a"/>
        <text x="20" y="30" font-size="16" font-weight="700" fill="#e2e8f0">AWeber</text>
        <text x="20" y="52" font-size="13" font-weight="500" fill="#94a3b8">Update Subscriber</text>
      </g>
<g transform="translate(1938,952)">
        <rect width="176" height="72" rx="12" fill="#0f1830" stroke="#2563eb" stroke-opacity="0.85" stroke-width="2"/>
        <rect width="6" height="72" rx="3" fill="#2563eb"/>
        <text x="20" y="30" font-size="16" font-weight="700" fill="#e2e8f0">SuiteDash</text>
        <text x="20" y="52" font-size="13" font-weight="500" fill="#94a3b8">API Call</text>
      </g>
<g transform="translate(2148,952)">
        <rect width="176" height="72" rx="12" fill="#0f1830" stroke="#64748b" stroke-opacity="0.85" stroke-width="2"/>
        <rect width="6" height="72" rx="3" fill="#64748b"/>
        <text x="20" y="30" font-size="16" font-weight="700" fill="#e2e8f0">Iterator</text>
        <text x="20" y="52" font-size="13" font-weight="500" fill="#94a3b8">Loop</text>
      </g>
<g transform="translate(2358,952)">
        <rect width="176" height="72" rx="12" fill="#0f1830" stroke="#2563eb" stroke-opacity="0.85" stroke-width="2"/>
        <rect width="6" height="72" rx="3" fill="#2563eb"/>
        <text x="20" y="30" font-size="16" font-weight="700" fill="#e2e8f0">SuiteDash</text>
        <text x="20" y="52" font-size="13" font-weight="500" fill="#94a3b8">API Call</text>
      </g>
<g transform="translate(2568,952)">
        <rect width="176" height="72" rx="12" fill="#0f1830" stroke="#16a34a" stroke-opacity="0.85" stroke-width="2"/>
        <rect width="6" height="72" rx="3" fill="#16a34a"/>
        <text x="20" y="30" font-size="16" font-weight="700" fill="#e2e8f0">AWeber</text>
        <text x="20" y="52" font-size="13" font-weight="500" fill="#94a3b8">Update Subscriber</text>
      </g>
<g transform="translate(1518,904)">
        <rect width="176" height="72" rx="12" fill="#0f1830" stroke="#7c3aed" stroke-opacity="0.85" stroke-width="2"/>
        <rect width="6" height="72" rx="3" fill="#7c3aed"/>
        <text x="20" y="30" font-size="16" font-weight="700" fill="#e2e8f0">Router</text>
        <text x="20" y="52" font-size="13" font-weight="500" fill="#94a3b8">2 routes</text>
      </g>
<g transform="translate(1098,520)">
        <rect width="176" height="72" rx="12" fill="#0f1830" stroke="#7c3aed" stroke-opacity="0.85" stroke-width="2"/>
        <rect width="6" height="72" rx="3" fill="#7c3aed"/>
        <text x="20" y="30" font-size="16" font-weight="700" fill="#e2e8f0">Router</text>
        <text x="20" y="52" font-size="13" font-weight="500" fill="#94a3b8">3 routes</text>
      </g>
<g transform="translate(468,1048)">
        <rect width="176" height="72" rx="12" fill="#0f1830" stroke="#0ea5e9" stroke-opacity="0.85" stroke-width="2"/>
        <rect width="6" height="72" rx="3" fill="#0ea5e9"/>
        <text x="20" y="30" font-size="16" font-weight="700" fill="#e2e8f0">HTTP</text>
        <text x="20" y="52" font-size="13" font-weight="500" fill="#94a3b8">HTTP Request</text>
      </g>
<g transform="translate(678,1048)">
        <rect width="176" height="72" rx="12" fill="#0f1830" stroke="#0ea5e9" stroke-opacity="0.85" stroke-width="2"/>
        <rect width="6" height="72" rx="3" fill="#0ea5e9"/>
        <text x="20" y="30" font-size="16" font-weight="700" fill="#e2e8f0">HTTP</text>
        <text x="20" y="52" font-size="13" font-weight="500" fill="#94a3b8">HTTP Request</text>
      </g>
<g transform="translate(888,1048)">
        <rect width="176" height="72" rx="12" fill="#0f1830" stroke="#f59e0b" stroke-opacity="0.85" stroke-width="2"/>
        <rect width="6" height="72" rx="3" fill="#f59e0b"/>
        <text x="20" y="30" font-size="16" font-weight="700" fill="#e2e8f0">Airtable</text>
        <text x="20" y="52" font-size="13" font-weight="500" fill="#94a3b8">Search Records</text>
      </g>
<g transform="translate(1308,1048)">
        <rect width="176" height="72" rx="12" fill="#0f1830" stroke="#f59e0b" stroke-opacity="0.85" stroke-width="2"/>
        <rect width="6" height="72" rx="3" fill="#f59e0b"/>
        <text x="20" y="30" font-size="16" font-weight="700" fill="#e2e8f0">Airtable</text>
        <text x="20" y="52" font-size="13" font-weight="500" fill="#94a3b8">Update Records</text>
      </g>
<g transform="translate(1518,1048)">
        <rect width="176" height="72" rx="12" fill="#0f1830" stroke="#f59e0b" stroke-opacity="0.85" stroke-width="2"/>
        <rect width="6" height="72" rx="3" fill="#f59e0b"/>
        <text x="20" y="30" font-size="16" font-weight="700" fill="#e2e8f0">Airtable</text>
        <text x="20" y="52" font-size="13" font-weight="500" fill="#94a3b8">Search Records</text>
      </g>
<g transform="translate(1728,1048)">
        <rect width="176" height="72" rx="12" fill="#0f1830" stroke="#f59e0b" stroke-opacity="0.85" stroke-width="2"/>
        <rect width="6" height="72" rx="3" fill="#f59e0b"/>
        <text x="20" y="30" font-size="16" font-weight="700" fill="#e2e8f0">Airtable</text>
        <text x="20" y="52" font-size="13" font-weight="500" fill="#94a3b8">Update Records</text>
      </g>
<g transform="translate(1938,1048)">
        <rect width="176" height="72" rx="12" fill="#0f1830" stroke="#16a34a" stroke-opacity="0.85" stroke-width="2"/>
        <rect width="6" height="72" rx="3" fill="#16a34a"/>
        <text x="20" y="30" font-size="16" font-weight="700" fill="#e2e8f0">AWeber</text>
        <text x="20" y="52" font-size="13" font-weight="500" fill="#94a3b8">Find Subscribers</text>
      </g>
<g transform="translate(2358,1048)">
        <rect width="176" height="72" rx="12" fill="#0f1830" stroke="#16a34a" stroke-opacity="0.85" stroke-width="2"/>
        <rect width="6" height="72" rx="3" fill="#16a34a"/>
        <text x="20" y="30" font-size="16" font-weight="700" fill="#e2e8f0">AWeber</text>
        <text x="20" y="52" font-size="13" font-weight="500" fill="#94a3b8">Create Subscriber</text>
      </g>
<g transform="translate(2568,1048)">
        <rect width="176" height="72" rx="12" fill="#0f1830" stroke="#2563eb" stroke-opacity="0.85" stroke-width="2"/>
        <rect width="6" height="72" rx="3" fill="#2563eb"/>
        <text x="20" y="30" font-size="16" font-weight="700" fill="#e2e8f0">SuiteDash</text>
        <text x="20" y="52" font-size="13" font-weight="500" fill="#94a3b8">API Call</text>
      </g>
<g transform="translate(2778,1048)">
        <rect width="176" height="72" rx="12" fill="#0f1830" stroke="#64748b" stroke-opacity="0.85" stroke-width="2"/>
        <rect width="6" height="72" rx="3" fill="#64748b"/>
        <text x="20" y="30" font-size="16" font-weight="700" fill="#e2e8f0">Iterator</text>
        <text x="20" y="52" font-size="13" font-weight="500" fill="#94a3b8">Loop</text>
      </g>
<g transform="translate(2988,1048)">
        <rect width="176" height="72" rx="12" fill="#0f1830" stroke="#2563eb" stroke-opacity="0.85" stroke-width="2"/>
        <rect width="6" height="72" rx="3" fill="#2563eb"/>
        <text x="20" y="30" font-size="16" font-weight="700" fill="#e2e8f0">SuiteDash</text>
        <text x="20" y="52" font-size="13" font-weight="500" fill="#94a3b8">API Call</text>
      </g>
<g transform="translate(3198,1048)">
        <rect width="176" height="72" rx="12" fill="#0f1830" stroke="#16a34a" stroke-opacity="0.85" stroke-width="2"/>
        <rect width="6" height="72" rx="3" fill="#16a34a"/>
        <text x="20" y="30" font-size="16" font-weight="700" fill="#e2e8f0">AWeber</text>
        <text x="20" y="52" font-size="13" font-weight="500" fill="#94a3b8">Update Subscriber</text>
      </g>
<g transform="translate(2358,1144)">
        <rect width="176" height="72" rx="12" fill="#0f1830" stroke="#16a34a" stroke-opacity="0.85" stroke-width="2"/>
        <rect width="6" height="72" rx="3" fill="#16a34a"/>
        <text x="20" y="30" font-size="16" font-weight="700" fill="#e2e8f0">AWeber</text>
        <text x="20" y="52" font-size="13" font-weight="500" fill="#94a3b8">Update Subscriber</text>
      </g>
<g transform="translate(2568,1144)">
        <rect width="176" height="72" rx="12" fill="#0f1830" stroke="#2563eb" stroke-opacity="0.85" stroke-width="2"/>
        <rect width="6" height="72" rx="3" fill="#2563eb"/>
        <text x="20" y="30" font-size="16" font-weight="700" fill="#e2e8f0">SuiteDash</text>
        <text x="20" y="52" font-size="13" font-weight="500" fill="#94a3b8">API Call</text>
      </g>
<g transform="translate(2778,1144)">
        <rect width="176" height="72" rx="12" fill="#0f1830" stroke="#64748b" stroke-opacity="0.85" stroke-width="2"/>
        <rect width="6" height="72" rx="3" fill="#64748b"/>
        <text x="20" y="30" font-size="16" font-weight="700" fill="#e2e8f0">Iterator</text>
        <text x="20" y="52" font-size="13" font-weight="500" fill="#94a3b8">Loop</text>
      </g>
<g transform="translate(2988,1144)">
        <rect width="176" height="72" rx="12" fill="#0f1830" stroke="#2563eb" stroke-opacity="0.85" stroke-width="2"/>
        <rect width="6" height="72" rx="3" fill="#2563eb"/>
        <text x="20" y="30" font-size="16" font-weight="700" fill="#e2e8f0">SuiteDash</text>
        <text x="20" y="52" font-size="13" font-weight="500" fill="#94a3b8">API Call</text>
      </g>
<g transform="translate(3198,1144)">
        <rect width="176" height="72" rx="12" fill="#0f1830" stroke="#16a34a" stroke-opacity="0.85" stroke-width="2"/>
        <rect width="6" height="72" rx="3" fill="#16a34a"/>
        <text x="20" y="30" font-size="16" font-weight="700" fill="#e2e8f0">AWeber</text>
        <text x="20" y="52" font-size="13" font-weight="500" fill="#94a3b8">Update Subscriber</text>
      </g>
<g transform="translate(2148,1096)">
        <rect width="176" height="72" rx="12" fill="#0f1830" stroke="#7c3aed" stroke-opacity="0.85" stroke-width="2"/>
        <rect width="6" height="72" rx="3" fill="#7c3aed"/>
        <text x="20" y="30" font-size="16" font-weight="700" fill="#e2e8f0">Router</text>
        <text x="20" y="52" font-size="13" font-weight="500" fill="#94a3b8">2 routes</text>
      </g>
<g transform="translate(1098,1096)">
        <rect width="176" height="72" rx="12" fill="#0f1830" stroke="#7c3aed" stroke-opacity="0.85" stroke-width="2"/>
        <rect width="6" height="72" rx="3" fill="#7c3aed"/>
        <text x="20" y="30" font-size="16" font-weight="700" fill="#e2e8f0">Router</text>
        <text x="20" y="52" font-size="13" font-weight="500" fill="#94a3b8">1 routes</text>
      </g>
<g transform="translate(258,616)">
        <rect width="176" height="72" rx="12" fill="#0f1830" stroke="#7c3aed" stroke-opacity="0.85" stroke-width="2"/>
        <rect width="6" height="72" rx="3" fill="#7c3aed"/>
        <text x="20" y="30" font-size="16" font-weight="700" fill="#e2e8f0">Router</text>
        <text x="20" y="52" font-size="13" font-weight="500" fill="#94a3b8">2 routes</text>
      </g>
  </g>
</svg>
