<svg xmlns="http://www.w3.org/2000/svg" width="3036" height="1672" viewBox="0 0 3036 1672" role="img" aria-label="Master Flow Stripe Event Router Make.com workflow">
  <defs>
    <linearGradient id="bg" x1="0" y1="0" x2="1" y2="1">
      <stop offset="0%" stop-color="#0a0f1c"/>
      <stop offset="100%" stop-color="#0b1424"/>
    </linearGradient>
    <pattern id="dots" width="28" height="28" patternUnits="userSpaceOnUse">
      <circle cx="2" cy="2" r="1.4" fill="#3b82f6" fill-opacity="0.08"/>
    </pattern>
  </defs>
  <rect width="3036" height="1672" fill="url(#bg)"/>
  <rect width="3036" height="1672" fill="url(#dots)"/>
  <text x="48" y="42" font-family="Inter, Segoe UI, Arial, sans-serif" font-size="20" font-weight="800" fill="#f1f5f9">Master Flow Stripe Event Router</text>
  <g font-family="Inter, Segoe UI, Arial, sans-serif">
    <path d="M224,124 C241,124 241,124 258,124" fill="none" stroke="#3b82f6" stroke-opacity="0.45" stroke-width="2"/>
<path d="M434,124 C451,124 451,124 468,124" fill="none" stroke="#3b82f6" stroke-opacity="0.45" stroke-width="2"/>
<path d="M644,124 C661,124 661,124 678,124" fill="none" stroke="#3b82f6" stroke-opacity="0.45" stroke-width="2"/>
<path d="M1694,124 C1711,124 1711,124 1728,124" fill="none" stroke="#3b82f6" stroke-opacity="0.45" stroke-width="2"/>
<path d="M2324,124 C2341,124 2341,124 2358,124" fill="none" stroke="#3b82f6" stroke-opacity="0.45" stroke-width="2"/>
<path d="M2324,220 C2341,220 2341,220 2358,220" fill="none" stroke="#3b82f6" stroke-opacity="0.45" stroke-width="2"/>
<path d="M1904,124 C1921,124 1921,172 1938,172" fill="none" stroke="#3b82f6" stroke-opacity="0.45" stroke-width="2"/>
<path d="M2114,172 C2131,172 2131,124 2148,124" fill="none" stroke="#3b82f6" stroke-opacity="0.45" stroke-width="2"/>
<path d="M2114,172 C2131,172 2131,220 2148,220" fill="none" stroke="#3b82f6" stroke-opacity="0.45" stroke-width="2"/>
<path d="M1694,316 C1711,316 1711,316 1728,316" fill="none" stroke="#3b82f6" stroke-opacity="0.45" stroke-width="2"/>
<path d="M2324,316 C2341,316 2341,316 2358,316" fill="none" stroke="#3b82f6" stroke-opacity="0.45" stroke-width="2"/>
<path d="M2324,412 C2341,412 2341,412 2358,412" fill="none" stroke="#3b82f6" stroke-opacity="0.45" stroke-width="2"/>
<path d="M1904,316 C1921,316 1921,364 1938,364" fill="none" stroke="#3b82f6" stroke-opacity="0.45" stroke-width="2"/>
<path d="M2114,364 C2131,364 2131,316 2148,316" fill="none" stroke="#3b82f6" stroke-opacity="0.45" stroke-width="2"/>
<path d="M2114,364 C2131,364 2131,412 2148,412" fill="none" stroke="#3b82f6" stroke-opacity="0.45" stroke-width="2"/>
<path d="M1694,508 C1711,508 1711,508 1728,508" fill="none" stroke="#3b82f6" stroke-opacity="0.45" stroke-width="2"/>
<path d="M2324,508 C2341,508 2341,508 2358,508" fill="none" stroke="#3b82f6" stroke-opacity="0.45" stroke-width="2"/>
<path d="M2324,604 C2341,604 2341,604 2358,604" fill="none" stroke="#3b82f6" stroke-opacity="0.45" stroke-width="2"/>
<path d="M1904,508 C1921,508 1921,556 1938,556" fill="none" stroke="#3b82f6" stroke-opacity="0.45" stroke-width="2"/>
<path d="M2114,556 C2131,556 2131,508 2148,508" fill="none" stroke="#3b82f6" stroke-opacity="0.45" stroke-width="2"/>
<path d="M2114,556 C2131,556 2131,604 2148,604" fill="none" stroke="#3b82f6" stroke-opacity="0.45" stroke-width="2"/>
<path d="M2114,700 C2131,700 2131,700 2148,700" fill="none" stroke="#3b82f6" stroke-opacity="0.45" stroke-width="2"/>
<path d="M2324,700 C2341,700 2341,700 2358,700" fill="none" stroke="#3b82f6" stroke-opacity="0.45" stroke-width="2"/>
<path d="M2534,700 C2551,700 2551,700 2568,700" fill="none" stroke="#3b82f6" stroke-opacity="0.45" stroke-width="2"/>
<path d="M2744,700 C2761,700 2761,700 2778,700" fill="none" stroke="#3b82f6" stroke-opacity="0.45" stroke-width="2"/>
<path d="M2114,796 C2131,796 2131,796 2148,796" fill="none" stroke="#3b82f6" stroke-opacity="0.45" stroke-width="2"/>
<path d="M2324,796 C2341,796 2341,796 2358,796" fill="none" stroke="#3b82f6" stroke-opacity="0.45" stroke-width="2"/>
<path d="M2534,796 C2551,796 2551,796 2568,796" fill="none" stroke="#3b82f6" stroke-opacity="0.45" stroke-width="2"/>
<path d="M2744,796 C2761,796 2761,796 2778,796" fill="none" stroke="#3b82f6" stroke-opacity="0.45" stroke-width="2"/>
<path d="M1694,700 C1711,700 1711,748 1728,748" fill="none" stroke="#3b82f6" stroke-opacity="0.45" stroke-width="2"/>
<path d="M1904,748 C1921,748 1921,700 1938,700" fill="none" stroke="#3b82f6" stroke-opacity="0.45" stroke-width="2"/>
<path d="M1904,748 C1921,748 1921,796 1938,796" fill="none" stroke="#3b82f6" stroke-opacity="0.45" stroke-width="2"/>
<path d="M1274,124 C1291,124 1291,460 1308,460" fill="none" stroke="#3b82f6" stroke-opacity="0.45" stroke-width="2"/>
<path d="M1484,460 C1501,460 1501,124 1518,124" fill="none" stroke="#3b82f6" stroke-opacity="0.45" stroke-width="2"/>
<path d="M1484,460 C1501,460 1501,316 1518,316" fill="none" stroke="#3b82f6" stroke-opacity="0.45" stroke-width="2"/>
<path d="M1484,460 C1501,460 1501,508 1518,508" fill="none" stroke="#3b82f6" stroke-opacity="0.45" stroke-width="2"/>
<path d="M1484,460 C1501,460 1501,700 1518,700" fill="none" stroke="#3b82f6" stroke-opacity="0.45" stroke-width="2"/>
<path d="M1694,892 C1711,892 1711,892 1728,892" fill="none" stroke="#3b82f6" stroke-opacity="0.45" stroke-width="2"/>
<path d="M2324,892 C2341,892 2341,892 2358,892" fill="none" stroke="#3b82f6" stroke-opacity="0.45" stroke-width="2"/>
<path d="M2324,988 C2341,988 2341,988 2358,988" fill="none" stroke="#3b82f6" stroke-opacity="0.45" stroke-width="2"/>
<path d="M1904,892 C1921,892 1921,940 1938,940" fill="none" stroke="#3b82f6" stroke-opacity="0.45" stroke-width="2"/>
<path d="M2114,940 C2131,940 2131,892 2148,892" fill="none" stroke="#3b82f6" stroke-opacity="0.45" stroke-width="2"/>
<path d="M2114,940 C2131,940 2131,988 2148,988" fill="none" stroke="#3b82f6" stroke-opacity="0.45" stroke-width="2"/>
<path d="M1694,1084 C1711,1084 1711,1084 1728,1084" fill="none" stroke="#3b82f6" stroke-opacity="0.45" stroke-width="2"/>
<path d="M2324,1084 C2341,1084 2341,1084 2358,1084" fill="none" stroke="#3b82f6" stroke-opacity="0.45" stroke-width="2"/>
<path d="M2324,1180 C2341,1180 2341,1180 2358,1180" fill="none" stroke="#3b82f6" stroke-opacity="0.45" stroke-width="2"/>
<path d="M1904,1084 C1921,1084 1921,1132 1938,1132" fill="none" stroke="#3b82f6" stroke-opacity="0.45" stroke-width="2"/>
<path d="M2114,1132 C2131,1132 2131,1084 2148,1084" fill="none" stroke="#3b82f6" stroke-opacity="0.45" stroke-width="2"/>
<path d="M2114,1132 C2131,1132 2131,1180 2148,1180" fill="none" stroke="#3b82f6" stroke-opacity="0.45" stroke-width="2"/>
<path d="M1694,1276 C1711,1276 1711,1276 1728,1276" fill="none" stroke="#3b82f6" stroke-opacity="0.45" stroke-width="2"/>
<path d="M2324,1276 C2341,1276 2341,1276 2358,1276" fill="none" stroke="#3b82f6" stroke-opacity="0.45" stroke-width="2"/>
<path d="M2324,1372 C2341,1372 2341,1372 2358,1372" fill="none" stroke="#3b82f6" stroke-opacity="0.45" stroke-width="2"/>
<path d="M1904,1276 C1921,1276 1921,1324 1938,1324" fill="none" stroke="#3b82f6" stroke-opacity="0.45" stroke-width="2"/>
<path d="M2114,1324 C2131,1324 2131,1276 2148,1276" fill="none" stroke="#3b82f6" stroke-opacity="0.45" stroke-width="2"/>
<path d="M2114,1324 C2131,1324 2131,1372 2148,1372" fill="none" stroke="#3b82f6" stroke-opacity="0.45" stroke-width="2"/>
<path d="M2114,1468 C2131,1468 2131,1468 2148,1468" fill="none" stroke="#3b82f6" stroke-opacity="0.45" stroke-width="2"/>
<path d="M2324,1468 C2341,1468 2341,1468 2358,1468" fill="none" stroke="#3b82f6" stroke-opacity="0.45" stroke-width="2"/>
<path d="M2534,1468 C2551,1468 2551,1468 2568,1468" fill="none" stroke="#3b82f6" stroke-opacity="0.45" stroke-width="2"/>
<path d="M2744,1468 C2761,1468 2761,1468 2778,1468" fill="none" stroke="#3b82f6" stroke-opacity="0.45" stroke-width="2"/>
<path d="M2114,1564 C2131,1564 2131,1564 2148,1564" fill="none" stroke="#3b82f6" stroke-opacity="0.45" stroke-width="2"/>
<path d="M2324,1564 C2341,1564 2341,1564 2358,1564" fill="none" stroke="#3b82f6" stroke-opacity="0.45" stroke-width="2"/>
<path d="M2534,1564 C2551,1564 2551,1564 2568,1564" fill="none" stroke="#3b82f6" stroke-opacity="0.45" stroke-width="2"/>
<path d="M2744,1564 C2761,1564 2761,1564 2778,1564" fill="none" stroke="#3b82f6" stroke-opacity="0.45" stroke-width="2"/>
<path d="M1694,1468 C1711,1468 1711,1516 1728,1516" fill="none" stroke="#3b82f6" stroke-opacity="0.45" stroke-width="2"/>
<path d="M1904,1516 C1921,1516 1921,1468 1938,1468" fill="none" stroke="#3b82f6" stroke-opacity="0.45" stroke-width="2"/>
<path d="M1904,1516 C1921,1516 1921,1564 1938,1564" fill="none" stroke="#3b82f6" stroke-opacity="0.45" stroke-width="2"/>
<path d="M1274,892 C1291,892 1291,1228 1308,1228" fill="none" stroke="#3b82f6" stroke-opacity="0.45" stroke-width="2"/>
<path d="M1484,1228 C1501,1228 1501,892 1518,892" fill="none" stroke="#3b82f6" stroke-opacity="0.45" stroke-width="2"/>
<path d="M1484,1228 C1501,1228 1501,1084 1518,1084" fill="none" stroke="#3b82f6" stroke-opacity="0.45" stroke-width="2"/>
<path d="M1484,1228 C1501,1228 1501,1276 1518,1276" fill="none" stroke="#3b82f6" stroke-opacity="0.45" stroke-width="2"/>
<path d="M1484,1228 C1501,1228 1501,1468 1518,1468" fill="none" stroke="#3b82f6" stroke-opacity="0.45" stroke-width="2"/>
<path d="M854,124 C871,124 871,844 888,844" fill="none" stroke="#3b82f6" stroke-opacity="0.45" stroke-width="2"/>
<path d="M1064,844 C1081,844 1081,124 1098,124" fill="none" stroke="#3b82f6" stroke-opacity="0.45" stroke-width="2"/>
<path d="M1064,844 C1081,844 1081,892 1098,892" fill="none" stroke="#3b82f6" stroke-opacity="0.45" stroke-width="2"/>
    <g transform="translate(48,88)">
        <rect width="176" height="72" rx="12" fill="#0f1830" stroke="#7c3aed" stroke-opacity="0.85" stroke-width="2"/>
        <rect width="6" height="72" rx="3" fill="#7c3aed"/>
        <text x="20" y="30" font-size="16" font-weight="700" fill="#e2e8f0">Webhook</text>
        <text x="20" y="52" font-size="13" font-weight="500" fill="#94a3b8">Webhook</text>
      </g>
<g transform="translate(258,88)">
        <rect width="176" height="72" rx="12" fill="#0f1830" stroke="#0ea5e9" stroke-opacity="0.85" stroke-width="2"/>
        <rect width="6" height="72" rx="3" fill="#0ea5e9"/>
        <text x="20" y="30" font-size="16" font-weight="700" fill="#e2e8f0">HTTP</text>
        <text x="20" y="52" font-size="13" font-weight="500" fill="#94a3b8">HTTP Request</text>
      </g>
<g transform="translate(468,88)">
        <rect width="176" height="72" rx="12" fill="#0f1830" stroke="#0ea5e9" stroke-opacity="0.85" stroke-width="2"/>
        <rect width="6" height="72" rx="3" fill="#0ea5e9"/>
        <text x="20" y="30" font-size="16" font-weight="700" fill="#e2e8f0">HTTP</text>
        <text x="20" y="52" font-size="13" font-weight="500" fill="#94a3b8">HTTP Request</text>
      </g>
<g transform="translate(678,88)">
        <rect width="176" height="72" rx="12" fill="#0f1830" stroke="#f59e0b" stroke-opacity="0.85" stroke-width="2"/>
        <rect width="6" height="72" rx="3" fill="#f59e0b"/>
        <text x="20" y="30" font-size="16" font-weight="700" fill="#e2e8f0">Airtable</text>
        <text x="20" y="52" font-size="13" font-weight="500" fill="#94a3b8">Search Records</text>
      </g>
<g transform="translate(1098,88)">
        <rect width="176" height="72" rx="12" fill="#0f1830" stroke="#f59e0b" stroke-opacity="0.85" stroke-width="2"/>
        <rect width="6" height="72" rx="3" fill="#f59e0b"/>
        <text x="20" y="30" font-size="16" font-weight="700" fill="#e2e8f0">Airtable</text>
        <text x="20" y="52" font-size="13" font-weight="500" fill="#94a3b8">Update Records</text>
      </g>
<g transform="translate(1518,88)">
        <rect width="176" height="72" rx="12" fill="#0f1830" stroke="#f59e0b" stroke-opacity="0.85" stroke-width="2"/>
        <rect width="6" height="72" rx="3" fill="#f59e0b"/>
        <text x="20" y="30" font-size="16" font-weight="700" fill="#e2e8f0">Airtable</text>
        <text x="20" y="52" font-size="13" font-weight="500" fill="#94a3b8">Update Records</text>
      </g>
<g transform="translate(1728,88)">
        <rect width="176" height="72" rx="12" fill="#0f1830" stroke="#f59e0b" stroke-opacity="0.85" stroke-width="2"/>
        <rect width="6" height="72" rx="3" fill="#f59e0b"/>
        <text x="20" y="30" font-size="16" font-weight="700" fill="#e2e8f0">Airtable</text>
        <text x="20" y="52" font-size="13" font-weight="500" fill="#94a3b8">Search Records</text>
      </g>
<g transform="translate(2148,88)">
        <rect width="176" height="72" rx="12" fill="#0f1830" stroke="#f59e0b" stroke-opacity="0.85" stroke-width="2"/>
        <rect width="6" height="72" rx="3" fill="#f59e0b"/>
        <text x="20" y="30" font-size="16" font-weight="700" fill="#e2e8f0">Airtable</text>
        <text x="20" y="52" font-size="13" font-weight="500" fill="#94a3b8">Create Record</text>
      </g>
<g transform="translate(2358,88)">
        <rect width="176" height="72" rx="12" fill="#0f1830" stroke="#f59e0b" stroke-opacity="0.85" stroke-width="2"/>
        <rect width="6" height="72" rx="3" fill="#f59e0b"/>
        <text x="20" y="30" font-size="16" font-weight="700" fill="#e2e8f0">Airtable</text>
        <text x="20" y="52" font-size="13" font-weight="500" fill="#94a3b8">Update Records</text>
      </g>
<g transform="translate(2148,184)">
        <rect width="176" height="72" rx="12" fill="#0f1830" stroke="#f59e0b" stroke-opacity="0.85" stroke-width="2"/>
        <rect width="6" height="72" rx="3" fill="#f59e0b"/>
        <text x="20" y="30" font-size="16" font-weight="700" fill="#e2e8f0">Airtable</text>
        <text x="20" y="52" font-size="13" font-weight="500" fill="#94a3b8">Update Records</text>
      </g>
<g transform="translate(2358,184)">
        <rect width="176" height="72" rx="12" fill="#0f1830" stroke="#f59e0b" stroke-opacity="0.85" stroke-width="2"/>
        <rect width="6" height="72" rx="3" fill="#f59e0b"/>
        <text x="20" y="30" font-size="16" font-weight="700" fill="#e2e8f0">Airtable</text>
        <text x="20" y="52" font-size="13" font-weight="500" fill="#94a3b8">Update Records</text>
      </g>
<g transform="translate(1938,136)">
        <rect width="176" height="72" rx="12" fill="#0f1830" stroke="#7c3aed" stroke-opacity="0.85" stroke-width="2"/>
        <rect width="6" height="72" rx="3" fill="#7c3aed"/>
        <text x="20" y="30" font-size="16" font-weight="700" fill="#e2e8f0">Router</text>
        <text x="20" y="52" font-size="13" font-weight="500" fill="#94a3b8">2 routes</text>
      </g>
<g transform="translate(1518,280)">
        <rect width="176" height="72" rx="12" fill="#0f1830" stroke="#f59e0b" stroke-opacity="0.85" stroke-width="2"/>
        <rect width="6" height="72" rx="3" fill="#f59e0b"/>
        <text x="20" y="30" font-size="16" font-weight="700" fill="#e2e8f0">Airtable</text>
        <text x="20" y="52" font-size="13" font-weight="500" fill="#94a3b8">Update Records</text>
      </g>
<g transform="translate(1728,280)">
        <rect width="176" height="72" rx="12" fill="#0f1830" stroke="#f59e0b" stroke-opacity="0.85" stroke-width="2"/>
        <rect width="6" height="72" rx="3" fill="#f59e0b"/>
        <text x="20" y="30" font-size="16" font-weight="700" fill="#e2e8f0">Airtable</text>
        <text x="20" y="52" font-size="13" font-weight="500" fill="#94a3b8">Search Records</text>
      </g>
<g transform="translate(2148,280)">
        <rect width="176" height="72" rx="12" fill="#0f1830" stroke="#f59e0b" stroke-opacity="0.85" stroke-width="2"/>
        <rect width="6" height="72" rx="3" fill="#f59e0b"/>
        <text x="20" y="30" font-size="16" font-weight="700" fill="#e2e8f0">Airtable</text>
        <text x="20" y="52" font-size="13" font-weight="500" fill="#94a3b8">Create Record</text>
      </g>
<g transform="translate(2358,280)">
        <rect width="176" height="72" rx="12" fill="#0f1830" stroke="#f59e0b" stroke-opacity="0.85" stroke-width="2"/>
        <rect width="6" height="72" rx="3" fill="#f59e0b"/>
        <text x="20" y="30" font-size="16" font-weight="700" fill="#e2e8f0">Airtable</text>
        <text x="20" y="52" font-size="13" font-weight="500" fill="#94a3b8">Update Records</text>
      </g>
<g transform="translate(2148,376)">
        <rect width="176" height="72" rx="12" fill="#0f1830" stroke="#f59e0b" stroke-opacity="0.85" stroke-width="2"/>
        <rect width="6" height="72" rx="3" fill="#f59e0b"/>
        <text x="20" y="30" font-size="16" font-weight="700" fill="#e2e8f0">Airtable</text>
        <text x="20" y="52" font-size="13" font-weight="500" fill="#94a3b8">Update Records</text>
      </g>
<g transform="translate(2358,376)">
        <rect width="176" height="72" rx="12" fill="#0f1830" stroke="#f59e0b" stroke-opacity="0.85" stroke-width="2"/>
        <rect width="6" height="72" rx="3" fill="#f59e0b"/>
        <text x="20" y="30" font-size="16" font-weight="700" fill="#e2e8f0">Airtable</text>
        <text x="20" y="52" font-size="13" font-weight="500" fill="#94a3b8">Update Records</text>
      </g>
<g transform="translate(1938,328)">
        <rect width="176" height="72" rx="12" fill="#0f1830" stroke="#7c3aed" stroke-opacity="0.85" stroke-width="2"/>
        <rect width="6" height="72" rx="3" fill="#7c3aed"/>
        <text x="20" y="30" font-size="16" font-weight="700" fill="#e2e8f0">Router</text>
        <text x="20" y="52" font-size="13" font-weight="500" fill="#94a3b8">2 routes</text>
      </g>
<g transform="translate(1518,472)">
        <rect width="176" height="72" rx="12" fill="#0f1830" stroke="#f59e0b" stroke-opacity="0.85" stroke-width="2"/>
        <rect width="6" height="72" rx="3" fill="#f59e0b"/>
        <text x="20" y="30" font-size="16" font-weight="700" fill="#e2e8f0">Airtable</text>
        <text x="20" y="52" font-size="13" font-weight="500" fill="#94a3b8">Update Records</text>
      </g>
<g transform="translate(1728,472)">
        <rect width="176" height="72" rx="12" fill="#0f1830" stroke="#f59e0b" stroke-opacity="0.85" stroke-width="2"/>
        <rect width="6" height="72" rx="3" fill="#f59e0b"/>
        <text x="20" y="30" font-size="16" font-weight="700" fill="#e2e8f0">Airtable</text>
        <text x="20" y="52" font-size="13" font-weight="500" fill="#94a3b8">Search Records</text>
      </g>
<g transform="translate(2148,472)">
        <rect width="176" height="72" rx="12" fill="#0f1830" stroke="#f59e0b" stroke-opacity="0.85" stroke-width="2"/>
        <rect width="6" height="72" rx="3" fill="#f59e0b"/>
        <text x="20" y="30" font-size="16" font-weight="700" fill="#e2e8f0">Airtable</text>
        <text x="20" y="52" font-size="13" font-weight="500" fill="#94a3b8">Create Record</text>
      </g>
<g transform="translate(2358,472)">
        <rect width="176" height="72" rx="12" fill="#0f1830" stroke="#f59e0b" stroke-opacity="0.85" stroke-width="2"/>
        <rect width="6" height="72" rx="3" fill="#f59e0b"/>
        <text x="20" y="30" font-size="16" font-weight="700" fill="#e2e8f0">Airtable</text>
        <text x="20" y="52" font-size="13" font-weight="500" fill="#94a3b8">Update Records</text>
      </g>
<g transform="translate(2148,568)">
        <rect width="176" height="72" rx="12" fill="#0f1830" stroke="#f59e0b" stroke-opacity="0.85" stroke-width="2"/>
        <rect width="6" height="72" rx="3" fill="#f59e0b"/>
        <text x="20" y="30" font-size="16" font-weight="700" fill="#e2e8f0">Airtable</text>
        <text x="20" y="52" font-size="13" font-weight="500" fill="#94a3b8">Update Records</text>
      </g>
<g transform="translate(2358,568)">
        <rect width="176" height="72" rx="12" fill="#0f1830" stroke="#f59e0b" stroke-opacity="0.85" stroke-width="2"/>
        <rect width="6" height="72" rx="3" fill="#f59e0b"/>
        <text x="20" y="30" font-size="16" font-weight="700" fill="#e2e8f0">Airtable</text>
        <text x="20" y="52" font-size="13" font-weight="500" fill="#94a3b8">Update Records</text>
      </g>
<g transform="translate(1938,520)">
        <rect width="176" height="72" rx="12" fill="#0f1830" stroke="#7c3aed" stroke-opacity="0.85" stroke-width="2"/>
        <rect width="6" height="72" rx="3" fill="#7c3aed"/>
        <text x="20" y="30" font-size="16" font-weight="700" fill="#e2e8f0">Router</text>
        <text x="20" y="52" font-size="13" font-weight="500" fill="#94a3b8">2 routes</text>
      </g>
<g transform="translate(1518,664)">
        <rect width="176" height="72" rx="12" fill="#0f1830" stroke="#16a34a" stroke-opacity="0.85" stroke-width="2"/>
        <rect width="6" height="72" rx="3" fill="#16a34a"/>
        <text x="20" y="30" font-size="16" font-weight="700" fill="#e2e8f0">AWeber</text>
        <text x="20" y="52" font-size="13" font-weight="500" fill="#94a3b8">Find Subscribers</text>
      </g>
<g transform="translate(1938,664)">
        <rect width="176" height="72" rx="12" fill="#0f1830" stroke="#16a34a" stroke-opacity="0.85" stroke-width="2"/>
        <rect width="6" height="72" rx="3" fill="#16a34a"/>
        <text x="20" y="30" font-size="16" font-weight="700" fill="#e2e8f0">AWeber</text>
        <text x="20" y="52" font-size="13" font-weight="500" fill="#94a3b8">Update Subscriber</text>
      </g>
<g transform="translate(2148,664)">
        <rect width="176" height="72" rx="12" fill="#0f1830" stroke="#2563eb" stroke-opacity="0.85" stroke-width="2"/>
        <rect width="6" height="72" rx="3" fill="#2563eb"/>
        <text x="20" y="30" font-size="16" font-weight="700" fill="#e2e8f0">SuiteDash</text>
        <text x="20" y="52" font-size="13" font-weight="500" fill="#94a3b8">API Call</text>
      </g>
<g transform="translate(2358,664)">
        <rect width="176" height="72" rx="12" fill="#0f1830" stroke="#64748b" stroke-opacity="0.85" stroke-width="2"/>
        <rect width="6" height="72" rx="3" fill="#64748b"/>
        <text x="20" y="30" font-size="16" font-weight="700" fill="#e2e8f0">Iterator</text>
        <text x="20" y="52" font-size="13" font-weight="500" fill="#94a3b8">Loop</text>
      </g>
<g transform="translate(2568,664)">
        <rect width="176" height="72" rx="12" fill="#0f1830" stroke="#2563eb" stroke-opacity="0.85" stroke-width="2"/>
        <rect width="6" height="72" rx="3" fill="#2563eb"/>
        <text x="20" y="30" font-size="16" font-weight="700" fill="#e2e8f0">SuiteDash</text>
        <text x="20" y="52" font-size="13" font-weight="500" fill="#94a3b8">API Call</text>
      </g>
<g transform="translate(2778,664)">
        <rect width="176" height="72" rx="12" fill="#0f1830" stroke="#16a34a" stroke-opacity="0.85" stroke-width="2"/>
        <rect width="6" height="72" rx="3" fill="#16a34a"/>
        <text x="20" y="30" font-size="16" font-weight="700" fill="#e2e8f0">AWeber</text>
        <text x="20" y="52" font-size="13" font-weight="500" fill="#94a3b8">Update Subscriber</text>
      </g>
<g transform="translate(1938,760)">
        <rect width="176" height="72" rx="12" fill="#0f1830" stroke="#16a34a" stroke-opacity="0.85" stroke-width="2"/>
        <rect width="6" height="72" rx="3" fill="#16a34a"/>
        <text x="20" y="30" font-size="16" font-weight="700" fill="#e2e8f0">AWeber</text>
        <text x="20" y="52" font-size="13" font-weight="500" fill="#94a3b8">Create Subscriber</text>
      </g>
<g transform="translate(2148,760)">
        <rect width="176" height="72" rx="12" fill="#0f1830" stroke="#2563eb" stroke-opacity="0.85" stroke-width="2"/>
        <rect width="6" height="72" rx="3" fill="#2563eb"/>
        <text x="20" y="30" font-size="16" font-weight="700" fill="#e2e8f0">SuiteDash</text>
        <text x="20" y="52" font-size="13" font-weight="500" fill="#94a3b8">API Call</text>
      </g>
<g transform="translate(2358,760)">
        <rect width="176" height="72" rx="12" fill="#0f1830" stroke="#64748b" stroke-opacity="0.85" stroke-width="2"/>
        <rect width="6" height="72" rx="3" fill="#64748b"/>
        <text x="20" y="30" font-size="16" font-weight="700" fill="#e2e8f0">Iterator</text>
        <text x="20" y="52" font-size="13" font-weight="500" fill="#94a3b8">Loop</text>
      </g>
<g transform="translate(2568,760)">
        <rect width="176" height="72" rx="12" fill="#0f1830" stroke="#2563eb" stroke-opacity="0.85" stroke-width="2"/>
        <rect width="6" height="72" rx="3" fill="#2563eb"/>
        <text x="20" y="30" font-size="16" font-weight="700" fill="#e2e8f0">SuiteDash</text>
        <text x="20" y="52" font-size="13" font-weight="500" fill="#94a3b8">API Call</text>
      </g>
<g transform="translate(2778,760)">
        <rect width="176" height="72" rx="12" fill="#0f1830" stroke="#16a34a" stroke-opacity="0.85" stroke-width="2"/>
        <rect width="6" height="72" rx="3" fill="#16a34a"/>
        <text x="20" y="30" font-size="16" font-weight="700" fill="#e2e8f0">AWeber</text>
        <text x="20" y="52" font-size="13" font-weight="500" fill="#94a3b8">Update Subscriber</text>
      </g>
<g transform="translate(1728,712)">
        <rect width="176" height="72" rx="12" fill="#0f1830" stroke="#7c3aed" stroke-opacity="0.85" stroke-width="2"/>
        <rect width="6" height="72" rx="3" fill="#7c3aed"/>
        <text x="20" y="30" font-size="16" font-weight="700" fill="#e2e8f0">Router</text>
        <text x="20" y="52" font-size="13" font-weight="500" fill="#94a3b8">2 routes</text>
      </g>
<g transform="translate(1308,424)">
        <rect width="176" height="72" rx="12" fill="#0f1830" stroke="#7c3aed" stroke-opacity="0.85" stroke-width="2"/>
        <rect width="6" height="72" rx="3" fill="#7c3aed"/>
        <text x="20" y="30" font-size="16" font-weight="700" fill="#e2e8f0">Router</text>
        <text x="20" y="52" font-size="13" font-weight="500" fill="#94a3b8">4 routes</text>
      </g>
<g transform="translate(1098,856)">
        <rect width="176" height="72" rx="12" fill="#0f1830" stroke="#f59e0b" stroke-opacity="0.85" stroke-width="2"/>
        <rect width="6" height="72" rx="3" fill="#f59e0b"/>
        <text x="20" y="30" font-size="16" font-weight="700" fill="#e2e8f0">Airtable</text>
        <text x="20" y="52" font-size="13" font-weight="500" fill="#94a3b8">Create Record</text>
      </g>
<g transform="translate(1518,856)">
        <rect width="176" height="72" rx="12" fill="#0f1830" stroke="#f59e0b" stroke-opacity="0.85" stroke-width="2"/>
        <rect width="6" height="72" rx="3" fill="#f59e0b"/>
        <text x="20" y="30" font-size="16" font-weight="700" fill="#e2e8f0">Airtable</text>
        <text x="20" y="52" font-size="13" font-weight="500" fill="#94a3b8">Update Records</text>
      </g>
<g transform="translate(1728,856)">
        <rect width="176" height="72" rx="12" fill="#0f1830" stroke="#f59e0b" stroke-opacity="0.85" stroke-width="2"/>
        <rect width="6" height="72" rx="3" fill="#f59e0b"/>
        <text x="20" y="30" font-size="16" font-weight="700" fill="#e2e8f0">Airtable</text>
        <text x="20" y="52" font-size="13" font-weight="500" fill="#94a3b8">Search Records</text>
      </g>
<g transform="translate(2148,856)">
        <rect width="176" height="72" rx="12" fill="#0f1830" stroke="#f59e0b" stroke-opacity="0.85" stroke-width="2"/>
        <rect width="6" height="72" rx="3" fill="#f59e0b"/>
        <text x="20" y="30" font-size="16" font-weight="700" fill="#e2e8f0">Airtable</text>
        <text x="20" y="52" font-size="13" font-weight="500" fill="#94a3b8">Create Record</text>
      </g>
<g transform="translate(2358,856)">
        <rect width="176" height="72" rx="12" fill="#0f1830" stroke="#f59e0b" stroke-opacity="0.85" stroke-width="2"/>
        <rect width="6" height="72" rx="3" fill="#f59e0b"/>
        <text x="20" y="30" font-size="16" font-weight="700" fill="#e2e8f0">Airtable</text>
        <text x="20" y="52" font-size="13" font-weight="500" fill="#94a3b8">Update Records</text>
      </g>
<g transform="translate(2148,952)">
        <rect width="176" height="72" rx="12" fill="#0f1830" stroke="#f59e0b" stroke-opacity="0.85" stroke-width="2"/>
        <rect width="6" height="72" rx="3" fill="#f59e0b"/>
        <text x="20" y="30" font-size="16" font-weight="700" fill="#e2e8f0">Airtable</text>
        <text x="20" y="52" font-size="13" font-weight="500" fill="#94a3b8">Update Records</text>
      </g>
<g transform="translate(2358,952)">
        <rect width="176" height="72" rx="12" fill="#0f1830" stroke="#f59e0b" stroke-opacity="0.85" stroke-width="2"/>
        <rect width="6" height="72" rx="3" fill="#f59e0b"/>
        <text x="20" y="30" font-size="16" font-weight="700" fill="#e2e8f0">Airtable</text>
        <text x="20" y="52" font-size="13" font-weight="500" fill="#94a3b8">Update Records</text>
      </g>
<g transform="translate(1938,904)">
        <rect width="176" height="72" rx="12" fill="#0f1830" stroke="#7c3aed" stroke-opacity="0.85" stroke-width="2"/>
        <rect width="6" height="72" rx="3" fill="#7c3aed"/>
        <text x="20" y="30" font-size="16" font-weight="700" fill="#e2e8f0">Router</text>
        <text x="20" y="52" font-size="13" font-weight="500" fill="#94a3b8">2 routes</text>
      </g>
<g transform="translate(1518,1048)">
        <rect width="176" height="72" rx="12" fill="#0f1830" stroke="#f59e0b" stroke-opacity="0.85" stroke-width="2"/>
        <rect width="6" height="72" rx="3" fill="#f59e0b"/>
        <text x="20" y="30" font-size="16" font-weight="700" fill="#e2e8f0">Airtable</text>
        <text x="20" y="52" font-size="13" font-weight="500" fill="#94a3b8">Update Records</text>
      </g>
<g transform="translate(1728,1048)">
        <rect width="176" height="72" rx="12" fill="#0f1830" stroke="#f59e0b" stroke-opacity="0.85" stroke-width="2"/>
        <rect width="6" height="72" rx="3" fill="#f59e0b"/>
        <text x="20" y="30" font-size="16" font-weight="700" fill="#e2e8f0">Airtable</text>
        <text x="20" y="52" font-size="13" font-weight="500" fill="#94a3b8">Search Records</text>
      </g>
<g transform="translate(2148,1048)">
        <rect width="176" height="72" rx="12" fill="#0f1830" stroke="#f59e0b" stroke-opacity="0.85" stroke-width="2"/>
        <rect width="6" height="72" rx="3" fill="#f59e0b"/>
        <text x="20" y="30" font-size="16" font-weight="700" fill="#e2e8f0">Airtable</text>
        <text x="20" y="52" font-size="13" font-weight="500" fill="#94a3b8">Create Record</text>
      </g>
<g transform="translate(2358,1048)">
        <rect width="176" height="72" rx="12" fill="#0f1830" stroke="#f59e0b" stroke-opacity="0.85" stroke-width="2"/>
        <rect width="6" height="72" rx="3" fill="#f59e0b"/>
        <text x="20" y="30" font-size="16" font-weight="700" fill="#e2e8f0">Airtable</text>
        <text x="20" y="52" font-size="13" font-weight="500" fill="#94a3b8">Update Records</text>
      </g>
<g transform="translate(2148,1144)">
        <rect width="176" height="72" rx="12" fill="#0f1830" stroke="#f59e0b" stroke-opacity="0.85" stroke-width="2"/>
        <rect width="6" height="72" rx="3" fill="#f59e0b"/>
        <text x="20" y="30" font-size="16" font-weight="700" fill="#e2e8f0">Airtable</text>
        <text x="20" y="52" font-size="13" font-weight="500" fill="#94a3b8">Update Records</text>
      </g>
<g transform="translate(2358,1144)">
        <rect width="176" height="72" rx="12" fill="#0f1830" stroke="#f59e0b" stroke-opacity="0.85" stroke-width="2"/>
        <rect width="6" height="72" rx="3" fill="#f59e0b"/>
        <text x="20" y="30" font-size="16" font-weight="700" fill="#e2e8f0">Airtable</text>
        <text x="20" y="52" font-size="13" font-weight="500" fill="#94a3b8">Update Records</text>
      </g>
<g transform="translate(1938,1096)">
        <rect width="176" height="72" rx="12" fill="#0f1830" stroke="#7c3aed" stroke-opacity="0.85" stroke-width="2"/>
        <rect width="6" height="72" rx="3" fill="#7c3aed"/>
        <text x="20" y="30" font-size="16" font-weight="700" fill="#e2e8f0">Router</text>
        <text x="20" y="52" font-size="13" font-weight="500" fill="#94a3b8">2 routes</text>
      </g>
<g transform="translate(1518,1240)">
        <rect width="176" height="72" rx="12" fill="#0f1830" stroke="#f59e0b" stroke-opacity="0.85" stroke-width="2"/>
        <rect width="6" height="72" rx="3" fill="#f59e0b"/>
        <text x="20" y="30" font-size="16" font-weight="700" fill="#e2e8f0">Airtable</text>
        <text x="20" y="52" font-size="13" font-weight="500" fill="#94a3b8">Update Records</text>
      </g>
<g transform="translate(1728,1240)">
        <rect width="176" height="72" rx="12" fill="#0f1830" stroke="#f59e0b" stroke-opacity="0.85" stroke-width="2"/>
        <rect width="6" height="72" rx="3" fill="#f59e0b"/>
        <text x="20" y="30" font-size="16" font-weight="700" fill="#e2e8f0">Airtable</text>
        <text x="20" y="52" font-size="13" font-weight="500" fill="#94a3b8">Search Records</text>
      </g>
<g transform="translate(2148,1240)">
        <rect width="176" height="72" rx="12" fill="#0f1830" stroke="#f59e0b" stroke-opacity="0.85" stroke-width="2"/>
        <rect width="6" height="72" rx="3" fill="#f59e0b"/>
        <text x="20" y="30" font-size="16" font-weight="700" fill="#e2e8f0">Airtable</text>
        <text x="20" y="52" font-size="13" font-weight="500" fill="#94a3b8">Create Record</text>
      </g>
<g transform="translate(2358,1240)">
        <rect width="176" height="72" rx="12" fill="#0f1830" stroke="#f59e0b" stroke-opacity="0.85" stroke-width="2"/>
        <rect width="6" height="72" rx="3" fill="#f59e0b"/>
        <text x="20" y="30" font-size="16" font-weight="700" fill="#e2e8f0">Airtable</text>
        <text x="20" y="52" font-size="13" font-weight="500" fill="#94a3b8">Update Records</text>
      </g>
<g transform="translate(2148,1336)">
        <rect width="176" height="72" rx="12" fill="#0f1830" stroke="#f59e0b" stroke-opacity="0.85" stroke-width="2"/>
        <rect width="6" height="72" rx="3" fill="#f59e0b"/>
        <text x="20" y="30" font-size="16" font-weight="700" fill="#e2e8f0">Airtable</text>
        <text x="20" y="52" font-size="13" font-weight="500" fill="#94a3b8">Update Records</text>
      </g>
<g transform="translate(2358,1336)">
        <rect width="176" height="72" rx="12" fill="#0f1830" stroke="#f59e0b" stroke-opacity="0.85" stroke-width="2"/>
        <rect width="6" height="72" rx="3" fill="#f59e0b"/>
        <text x="20" y="30" font-size="16" font-weight="700" fill="#e2e8f0">Airtable</text>
        <text x="20" y="52" font-size="13" font-weight="500" fill="#94a3b8">Update Records</text>
      </g>
<g transform="translate(1938,1288)">
        <rect width="176" height="72" rx="12" fill="#0f1830" stroke="#7c3aed" stroke-opacity="0.85" stroke-width="2"/>
        <rect width="6" height="72" rx="3" fill="#7c3aed"/>
        <text x="20" y="30" font-size="16" font-weight="700" fill="#e2e8f0">Router</text>
        <text x="20" y="52" font-size="13" font-weight="500" fill="#94a3b8">2 routes</text>
      </g>
<g transform="translate(1518,1432)">
        <rect width="176" height="72" rx="12" fill="#0f1830" stroke="#16a34a" stroke-opacity="0.85" stroke-width="2"/>
        <rect width="6" height="72" rx="3" fill="#16a34a"/>
        <text x="20" y="30" font-size="16" font-weight="700" fill="#e2e8f0">AWeber</text>
        <text x="20" y="52" font-size="13" font-weight="500" fill="#94a3b8">Find Subscribers</text>
      </g>
<g transform="translate(1938,1432)">
        <rect width="176" height="72" rx="12" fill="#0f1830" stroke="#16a34a" stroke-opacity="0.85" stroke-width="2"/>
        <rect width="6" height="72" rx="3" fill="#16a34a"/>
        <text x="20" y="30" font-size="16" font-weight="700" fill="#e2e8f0">AWeber</text>
        <text x="20" y="52" font-size="13" font-weight="500" fill="#94a3b8">Update Subscriber</text>
      </g>
<g transform="translate(2148,1432)">
        <rect width="176" height="72" rx="12" fill="#0f1830" stroke="#2563eb" stroke-opacity="0.85" stroke-width="2"/>
        <rect width="6" height="72" rx="3" fill="#2563eb"/>
        <text x="20" y="30" font-size="16" font-weight="700" fill="#e2e8f0">SuiteDash</text>
        <text x="20" y="52" font-size="13" font-weight="500" fill="#94a3b8">API Call</text>
      </g>
<g transform="translate(2358,1432)">
        <rect width="176" height="72" rx="12" fill="#0f1830" stroke="#64748b" stroke-opacity="0.85" stroke-width="2"/>
        <rect width="6" height="72" rx="3" fill="#64748b"/>
        <text x="20" y="30" font-size="16" font-weight="700" fill="#e2e8f0">Iterator</text>
        <text x="20" y="52" font-size="13" font-weight="500" fill="#94a3b8">Loop</text>
      </g>
<g transform="translate(2568,1432)">
        <rect width="176" height="72" rx="12" fill="#0f1830" stroke="#2563eb" stroke-opacity="0.85" stroke-width="2"/>
        <rect width="6" height="72" rx="3" fill="#2563eb"/>
        <text x="20" y="30" font-size="16" font-weight="700" fill="#e2e8f0">SuiteDash</text>
        <text x="20" y="52" font-size="13" font-weight="500" fill="#94a3b8">API Call</text>
      </g>
<g transform="translate(2778,1432)">
        <rect width="176" height="72" rx="12" fill="#0f1830" stroke="#16a34a" stroke-opacity="0.85" stroke-width="2"/>
        <rect width="6" height="72" rx="3" fill="#16a34a"/>
        <text x="20" y="30" font-size="16" font-weight="700" fill="#e2e8f0">AWeber</text>
        <text x="20" y="52" font-size="13" font-weight="500" fill="#94a3b8">Update Subscriber</text>
      </g>
<g transform="translate(1938,1528)">
        <rect width="176" height="72" rx="12" fill="#0f1830" stroke="#16a34a" stroke-opacity="0.85" stroke-width="2"/>
        <rect width="6" height="72" rx="3" fill="#16a34a"/>
        <text x="20" y="30" font-size="16" font-weight="700" fill="#e2e8f0">AWeber</text>
        <text x="20" y="52" font-size="13" font-weight="500" fill="#94a3b8">Create Subscriber</text>
      </g>
<g transform="translate(2148,1528)">
        <rect width="176" height="72" rx="12" fill="#0f1830" stroke="#2563eb" stroke-opacity="0.85" stroke-width="2"/>
        <rect width="6" height="72" rx="3" fill="#2563eb"/>
        <text x="20" y="30" font-size="16" font-weight="700" fill="#e2e8f0">SuiteDash</text>
        <text x="20" y="52" font-size="13" font-weight="500" fill="#94a3b8">API Call</text>
      </g>
<g transform="translate(2358,1528)">
        <rect width="176" height="72" rx="12" fill="#0f1830" stroke="#64748b" stroke-opacity="0.85" stroke-width="2"/>
        <rect width="6" height="72" rx="3" fill="#64748b"/>
        <text x="20" y="30" font-size="16" font-weight="700" fill="#e2e8f0">Iterator</text>
        <text x="20" y="52" font-size="13" font-weight="500" fill="#94a3b8">Loop</text>
      </g>
<g transform="translate(2568,1528)">
        <rect width="176" height="72" rx="12" fill="#0f1830" stroke="#2563eb" stroke-opacity="0.85" stroke-width="2"/>
        <rect width="6" height="72" rx="3" fill="#2563eb"/>
        <text x="20" y="30" font-size="16" font-weight="700" fill="#e2e8f0">SuiteDash</text>
        <text x="20" y="52" font-size="13" font-weight="500" fill="#94a3b8">API Call</text>
      </g>
<g transform="translate(2778,1528)">
        <rect width="176" height="72" rx="12" fill="#0f1830" stroke="#16a34a" stroke-opacity="0.85" stroke-width="2"/>
        <rect width="6" height="72" rx="3" fill="#16a34a"/>
        <text x="20" y="30" font-size="16" font-weight="700" fill="#e2e8f0">AWeber</text>
        <text x="20" y="52" font-size="13" font-weight="500" fill="#94a3b8">Update Subscriber</text>
      </g>
<g transform="translate(1728,1480)">
        <rect width="176" height="72" rx="12" fill="#0f1830" stroke="#7c3aed" stroke-opacity="0.85" stroke-width="2"/>
        <rect width="6" height="72" rx="3" fill="#7c3aed"/>
        <text x="20" y="30" font-size="16" font-weight="700" fill="#e2e8f0">Router</text>
        <text x="20" y="52" font-size="13" font-weight="500" fill="#94a3b8">2 routes</text>
      </g>
<g transform="translate(1308,1192)">
        <rect width="176" height="72" rx="12" fill="#0f1830" stroke="#7c3aed" stroke-opacity="0.85" stroke-width="2"/>
        <rect width="6" height="72" rx="3" fill="#7c3aed"/>
        <text x="20" y="30" font-size="16" font-weight="700" fill="#e2e8f0">Router</text>
        <text x="20" y="52" font-size="13" font-weight="500" fill="#94a3b8">4 routes</text>
      </g>
<g transform="translate(888,808)">
        <rect width="176" height="72" rx="12" fill="#0f1830" stroke="#7c3aed" stroke-opacity="0.85" stroke-width="2"/>
        <rect width="6" height="72" rx="3" fill="#7c3aed"/>
        <text x="20" y="30" font-size="16" font-weight="700" fill="#e2e8f0">Router</text>
        <text x="20" y="52" font-size="13" font-weight="500" fill="#94a3b8">2 routes</text>
      </g>
  </g>
</svg>
