<svg xmlns="http://www.w3.org/2000/svg" width="1776" height="232" viewBox="0 0 1776 232" role="img" aria-label="Daily Mail Make.com workflow">
  <defs>
    <linearGradient id="bg" x1="0" y1="0" x2="1" y2="1">
      <stop offset="0%" stop-color="#0a0f1c"/>
      <stop offset="100%" stop-color="#0b1424"/>
    </linearGradient>
    <pattern id="dots" width="28" height="28" patternUnits="userSpaceOnUse">
      <circle cx="2" cy="2" r="1.4" fill="#3b82f6" fill-opacity="0.08"/>
    </pattern>
  </defs>
  <rect width="1776" height="232" fill="url(#bg)"/>
  <rect width="1776" height="232" fill="url(#dots)"/>
  <text x="48" y="42" font-family="Inter, Segoe UI, Arial, sans-serif" font-size="20" font-weight="800" fill="#f1f5f9">Daily Mail</text>
  <g font-family="Inter, Segoe UI, Arial, sans-serif">
    <path d="M224,124 C241,124 241,124 258,124" fill="none" stroke="#3b82f6" stroke-opacity="0.45" stroke-width="2"/>
<path d="M434,124 C451,124 451,124 468,124" fill="none" stroke="#3b82f6" stroke-opacity="0.45" stroke-width="2"/>
<path d="M644,124 C661,124 661,124 678,124" fill="none" stroke="#3b82f6" stroke-opacity="0.45" stroke-width="2"/>
<path d="M854,124 C871,124 871,124 888,124" fill="none" stroke="#3b82f6" stroke-opacity="0.45" stroke-width="2"/>
<path d="M1064,124 C1081,124 1081,124 1098,124" fill="none" stroke="#3b82f6" stroke-opacity="0.45" stroke-width="2"/>
<path d="M1274,124 C1291,124 1291,124 1308,124" fill="none" stroke="#3b82f6" stroke-opacity="0.45" stroke-width="2"/>
<path d="M1484,124 C1501,124 1501,124 1518,124" fill="none" stroke="#3b82f6" stroke-opacity="0.45" stroke-width="2"/>
    <g transform="translate(48,88)">
        <rect width="176" height="72" rx="12" fill="#0f1830" stroke="#f59e0b" stroke-opacity="0.85" stroke-width="2"/>
        <rect width="6" height="72" rx="3" fill="#f59e0b"/>
        <text x="20" y="30" font-size="16" font-weight="700" fill="#e2e8f0">Airtable</text>
        <text x="20" y="52" font-size="13" font-weight="500" fill="#94a3b8">Search Records</text>
      </g>
<g transform="translate(258,88)">
        <rect width="176" height="72" rx="12" fill="#0f1830" stroke="#0ea5e9" stroke-opacity="0.85" stroke-width="2"/>
        <rect width="6" height="72" rx="3" fill="#0ea5e9"/>
        <text x="20" y="30" font-size="16" font-weight="700" fill="#e2e8f0">HTTP</text>
        <text x="20" y="52" font-size="13" font-weight="500" fill="#94a3b8">Get File</text>
      </g>
<g transform="translate(468,88)">
        <rect width="176" height="72" rx="12" fill="#0f1830" stroke="#3b82f6" stroke-opacity="0.85" stroke-width="2"/>
        <rect width="6" height="72" rx="3" fill="#3b82f6"/>
        <text x="20" y="30" font-size="16" font-weight="700" fill="#e2e8f0">Cloudinary</text>
        <text x="20" y="52" font-size="13" font-weight="500" fill="#94a3b8">Upload Image</text>
      </g>
<g transform="translate(678,88)">
        <rect width="176" height="72" rx="12" fill="#0f1830" stroke="#f59e0b" stroke-opacity="0.85" stroke-width="2"/>
        <rect width="6" height="72" rx="3" fill="#f59e0b"/>
        <text x="20" y="30" font-size="16" font-weight="700" fill="#e2e8f0">Airtable</text>
        <text x="20" y="52" font-size="13" font-weight="500" fill="#94a3b8">Search Records</text>
      </g>
<g transform="translate(888,88)">
        <rect width="176" height="72" rx="12" fill="#0f1830" stroke="#64748b" stroke-opacity="0.85" stroke-width="2"/>
        <rect width="6" height="72" rx="3" fill="#64748b"/>
        <text x="20" y="30" font-size="16" font-weight="700" fill="#e2e8f0">Aggregator</text>
        <text x="20" y="52" font-size="13" font-weight="500" fill="#94a3b8">Combine</text>
      </g>
<g transform="translate(1098,88)">
        <rect width="176" height="72" rx="12" fill="#0f1830" stroke="#64748b" stroke-opacity="0.85" stroke-width="2"/>
        <rect width="6" height="72" rx="3" fill="#64748b"/>
        <text x="20" y="30" font-size="16" font-weight="700" fill="#e2e8f0">Iterator</text>
        <text x="20" y="52" font-size="13" font-weight="500" fill="#94a3b8">Loop</text>
      </g>
<g transform="translate(1308,88)">
        <rect width="176" height="72" rx="12" fill="#0f1830" stroke="#0ea5e9" stroke-opacity="0.85" stroke-width="2"/>
        <rect width="6" height="72" rx="3" fill="#0ea5e9"/>
        <text x="20" y="30" font-size="16" font-weight="700" fill="#e2e8f0">HTTP</text>
        <text x="20" y="52" font-size="13" font-weight="500" fill="#94a3b8">Send Data</text>
      </g>
<g transform="translate(1518,88)">
        <rect width="176" height="72" rx="12" fill="#0f1830" stroke="#f59e0b" stroke-opacity="0.85" stroke-width="2"/>
        <rect width="6" height="72" rx="3" fill="#f59e0b"/>
        <text x="20" y="30" font-size="16" font-weight="700" fill="#e2e8f0">Airtable</text>
        <text x="20" y="52" font-size="13" font-weight="500" fill="#94a3b8">Update Records</text>
      </g>
  </g>
</svg>
