<svg xmlns="http://www.w3.org/2000/svg" width="936" height="424" viewBox="0 0 936 424" role="img" aria-label="AWeber Engagement Tracking Make.com workflow">
  <defs>
    <linearGradient id="bg" x1="0" y1="0" x2="1" y2="1">
      <stop offset="0%" stop-color="#0a0f1c"/>
      <stop offset="100%" stop-color="#0b1424"/>
    </linearGradient>
    <pattern id="dots" width="28" height="28" patternUnits="userSpaceOnUse">
      <circle cx="2" cy="2" r="1.4" fill="#3b82f6" fill-opacity="0.08"/>
    </pattern>
  </defs>
  <rect width="936" height="424" fill="url(#bg)"/>
  <rect width="936" height="424" fill="url(#dots)"/>
  <text x="48" y="42" font-family="Inter, Segoe UI, Arial, sans-serif" font-size="20" font-weight="800" fill="#f1f5f9">AWeber Engagement Tracking</text>
  <g font-family="Inter, Segoe UI, Arial, sans-serif">
    <path d="M224,124 C241,124 241,124 258,124" fill="none" stroke="#3b82f6" stroke-opacity="0.45" stroke-width="2"/>
<path d="M434,124 C451,124 451,220 468,220" fill="none" stroke="#3b82f6" stroke-opacity="0.45" stroke-width="2"/>
<path d="M644,220 C661,220 661,124 678,124" fill="none" stroke="#3b82f6" stroke-opacity="0.45" stroke-width="2"/>
<path d="M644,220 C661,220 661,220 678,220" fill="none" stroke="#3b82f6" stroke-opacity="0.45" stroke-width="2"/>
<path d="M644,220 C661,220 661,316 678,316" fill="none" stroke="#3b82f6" stroke-opacity="0.45" stroke-width="2"/>
    <g transform="translate(48,88)">
        <rect width="176" height="72" rx="12" fill="#0f1830" stroke="#16a34a" stroke-opacity="0.85" stroke-width="2"/>
        <rect width="6" height="72" rx="3" fill="#16a34a"/>
        <text x="20" y="30" font-size="16" font-weight="700" fill="#e2e8f0">AWeber</text>
        <text x="20" y="52" font-size="13" font-weight="500" fill="#94a3b8">Find Subscribers</text>
      </g>
<g transform="translate(258,88)">
        <rect width="176" height="72" rx="12" fill="#0f1830" stroke="#16a34a" stroke-opacity="0.85" stroke-width="2"/>
        <rect width="6" height="72" rx="3" fill="#16a34a"/>
        <text x="20" y="30" font-size="16" font-weight="700" fill="#e2e8f0">AWeber</text>
        <text x="20" y="52" font-size="13" font-weight="500" fill="#94a3b8">Get Activity</text>
      </g>
<g transform="translate(678,88)">
        <rect width="176" height="72" rx="12" fill="#0f1830" stroke="#16a34a" stroke-opacity="0.85" stroke-width="2"/>
        <rect width="6" height="72" rx="3" fill="#16a34a"/>
        <text x="20" y="30" font-size="16" font-weight="700" fill="#e2e8f0">AWeber</text>
        <text x="20" y="52" font-size="13" font-weight="500" fill="#94a3b8">Update Subscriber</text>
      </g>
<g transform="translate(678,184)">
        <rect width="176" height="72" rx="12" fill="#0f1830" stroke="#16a34a" stroke-opacity="0.85" stroke-width="2"/>
        <rect width="6" height="72" rx="3" fill="#16a34a"/>
        <text x="20" y="30" font-size="16" font-weight="700" fill="#e2e8f0">AWeber</text>
        <text x="20" y="52" font-size="13" font-weight="500" fill="#94a3b8">Update Subscriber</text>
      </g>
<g transform="translate(678,280)">
        <rect width="176" height="72" rx="12" fill="#0f1830" stroke="#16a34a" stroke-opacity="0.85" stroke-width="2"/>
        <rect width="6" height="72" rx="3" fill="#16a34a"/>
        <text x="20" y="30" font-size="16" font-weight="700" fill="#e2e8f0">AWeber</text>
        <text x="20" y="52" font-size="13" font-weight="500" fill="#94a3b8">Update Subscriber</text>
      </g>
<g transform="translate(468,184)">
        <rect width="176" height="72" rx="12" fill="#0f1830" stroke="#7c3aed" stroke-opacity="0.85" stroke-width="2"/>
        <rect width="6" height="72" rx="3" fill="#7c3aed"/>
        <text x="20" y="30" font-size="16" font-weight="700" fill="#e2e8f0">Router</text>
        <text x="20" y="52" font-size="13" font-weight="500" fill="#94a3b8">3 routes</text>
      </g>
  </g>
</svg>
